<svg aria-hidden="true" style="position: absolute; width: 0; height: 0; overflow: hidden;" xmlns="http://www.w3.org/2000/svg">
<defs>
<symbol id="rotate-right" viewBox="0 0 512 512">
<path fill="white" d="M496 48V192c0 17.69-14.31 32-32 32H320c-17.69 0-32-14.31-32-32s14.31-32 32-32h63.39c-29.97-39.7-77.25-63.78-127.6-63.78C167.7 96.22 96 167.9 96 256s71.69 159.8 159.8 159.8c34.88 0 68.03-11.03 95.88-31.94c14.22-10.53 34.22-7.75 44.81 6.375c10.59 14.16 7.75 34.22-6.375 44.81c-39.03 29.28-85.36 44.86-134.2 44.86C132.5 479.9 32 379.4 32 256s100.5-223.9 223.9-223.9c69.15 0 134 32.47 176.1 86.12V48c0-17.69 14.31-32 32-32S496 30.31 496 48z"/>
</symbol>
<symbol id="spinner" viewBox="0 0 1792 1792">
<path d="M526 1394q0 53-37.5 90.5t-90.5 37.5q-52 0-90-38t-38-90q0-53 37.5-90.5t90.5-37.5 90.5 37.5 37.5 90.5zm498 206q0 53-37.5 90.5t-90.5 37.5-90.5-37.5-37.5-90.5 37.5-90.5 90.5-37.5 90.5 37.5 37.5 90.5zm-704-704q0 53-37.5 90.5t-90.5 37.5-90.5-37.5-37.5-90.5 37.5-90.5 90.5-37.5 90.5 37.5 37.5 90.5zm1202 498q0 52-38 90t-90 38q-53 0-90.5-37.5t-37.5-90.5 37.5-90.5 90.5-37.5 90.5 37.5 37.5 90.5zm-964-996q0 66-47 113t-113 47-113-47-47-113 47-113 113-47 113 47 47 113zm1170 498q0 53-37.5 90.5t-90.5 37.5-90.5-37.5-37.5-90.5 37.5-90.5 90.5-37.5 90.5 37.5 37.5 90.5zm-640-704q0 80-56 136t-136 56-136-56-56-136 56-136 136-56 136 56 56 136zm530 206q0 93-66 158.5t-158 65.5q-93 0-158.5-65.5t-65.5-158.5q0-92 65.5-158t158.5-66q92 0 158 66t66 158z"/>
</symbol>
</defs>
</svg>